<?xml version="1.0" encoding="UTF-8"?>
<svg id="Layer_2" xmlns="http://www.w3.org/2000/svg" xmlns:xlink="http://www.w3.org/1999/xlink" viewBox="0 0 2003.29 760.25">
  <defs>
    <style>
      .cls-1 {
        fill: url(#linear-gradient-2);
      }

      .cls-2 {
        fill: url(#linear-gradient-4);
      }

      .cls-3 {
        fill: url(#linear-gradient-3);
      }

      .cls-4 {
        fill: #102b3b;
      }

      .cls-5 {
        fill: url(#linear-gradient);
      }
    </style>
    <linearGradient id="linear-gradient" x1="-115.54" y1="224.26" x2="628.67" y2="224.26" gradientUnits="userSpaceOnUse">
      <stop offset="0" stop-color="#ff69b4"/>
      <stop offset="1" stop-color="#00bfff"/>
    </linearGradient>
    <linearGradient id="linear-gradient-2" x1="17" y1="365.54" x2="288.6" y2="365.54" xlink:href="#linear-gradient"/>
    <linearGradient id="linear-gradient-3" x1="11.1" y1="598.99" x2="140.1" y2="598.99" xlink:href="#linear-gradient"/>
    <linearGradient id="linear-gradient-4" x1="324.1" y1="598.71" x2="600.1" y2="598.71" xlink:href="#linear-gradient"/>
  </defs>
  <g id="Layer_2-2" data-name="Layer_2">
    <g>
      <g>
        <path class="cls-4" d="M567.1,604.49c-33.2,0-42.5-.3-48.7-1.6-4.3-.8-11.6-3.4-16.3-5.6-6.8-3.2-10.2-5.7-16.7-12.2s-8.9-9.8-12.2-16.6c-2.3-4.7-4.8-11.6-5.6-15.5-1.2-5.6-1.5-16.6-1.5-55.7v-48.8c115.5,0,141.7-.4,143-1,2-1,2-2,2-82s0-81-2-82c-1.3-.6-27.5-1-72.5-1h-70.5c-.8-74.9-1.1-82-2.8-91.5-1.1-6-2.9-14.6-4-19-1.2-4.4-3.5-12.3-5.2-17.5-1.8-5.2-6.2-15.8-9.9-23.5-3.7-7.7-9.8-18.7-13.5-24.5-3.8-5.8-9.3-13.6-12.4-17.5-3-3.8-8.5-10.3-12.1-14.4-3.6-4.1-11.8-11.9-18.1-17.3-6.3-5.5-16.7-13.4-23-17.6-6.3-4.2-17.8-10.8-25.5-14.7-8.6-4.4-20-9.1-29.5-12.2-8.5-2.9-20-6.1-25.5-7.3s-14.7-2.7-20.5-3.5c-5.8-.8-17-1.6-25-1.8-8-.3-17.1-.2-20.3,0-3.1.3-11,1.1-17.5,1.9-6.4.8-16.9,2.7-23.2,4.1s-16.7,4.3-23,6.4c-6.3,2.2-18.2,7.3-26.5,11.3-8.2,4.1-20.2,10.9-26.5,15.1s-15.1,10.7-19.5,14.5c-4.4,3.7-12.1,10.8-17,15.7-4.9,4.9-11.9,12.5-15.4,16.8-3.5,4.4-9.6,12.9-13.7,19-4,6.1-9.7,15.9-12.7,22-3,6.1-7.1,15.2-9.1,20.3-2,5-5,14-6.6,20-1.7,5.9-3.7,14.3-4.5,18.7-.9,4.4-2,11.8-2.5,16.5S.1,229.69.1,252.49l-.1,41.5c6,6.2,25.7,27.1,47.7,50.4,21.9,23.4,42.8,45.7,46.3,49.5,3.5,3.9,12.8,13.9,20.6,22.1,7.8,8.3,15.4,16.5,16.9,18.3l2.6,3.2c-117.1,0-131.9.3-132.8,1.3-1,.9-1.2,36.6-1.2,160v158.7c3.1,2,9.8,2.63,38.14,2.74.15-.19.28-.3.36-.3.03,0,.06.11.09.3,9.99.04,22.63.01,38.71-.04,63.4-.2,72.9-.4,73.7-1.7.6-.9,1-60.3,1-155.7v-154.3c145,0,146,0,147-2,.6-1.3,1-30.5,1-81.5,0-69.3-.2-79.7-1.5-81-1.3-1.3-10.9-1.5-74.5-1.5h-73c.6-61.6.8-63.9,2.9-70.5,1.3-3.9,4.3-10.8,6.7-15.5,2.5-4.7,7.2-11.6,10.7-15.4,3.4-3.8,8.9-8.8,12.2-11.2,3.3-2.3,9.4-5.8,13.5-7.8,4.1-2,11.1-4.5,15.5-5.7,5.7-1.4,11.2-2.1,19-2.1s13.5.6,19.8,2.1c4.8,1.2,12,3.7,16,5.6,3.9,1.9,10.3,5.9,14.1,8.8,3.9,2.8,9.6,8.3,12.9,12.2,3.2,3.9,7.6,10.6,9.7,15,2.2,4.4,4.9,11.6,6.2,16,2,7.4,2.2,10.5,2.5,43.8l.3,35.7c21.2,22.9,33.9,36.5,41.9,45s22,23.3,31,33c9.1,9.6,20.6,21.8,25.5,27,5,5.2,15,15.7,22.1,23.4,7.2,7.6,13.1,14.3,13.3,14.7,0,.5-29.46.9-66.3.9h-66.5c-1.6,4.1-1.8,27.7-1.5,69.8.3,35.6,1,69,1.6,74.2.5,5.2,2.3,14.9,3.9,21.5,1.6,6.6,4.5,16.5,6.5,22s5.8,14.7,8.6,20.5c2.8,5.8,7.1,13.9,9.6,18,2.6,4.1,8.3,12.5,12.8,18.5s12.7,15.3,18.1,20.5c5.5,5.2,13.5,12.2,17.9,15.5,4.4,3.3,10.6,7.7,13.8,9.8,3.1,2,11,6.3,17.5,9.6,6.4,3.2,16,7.5,21.2,9.4,5.2,2,15.8,5.1,23.5,7,7.7,1.9,18.5,4.1,24,4.8,7.4,1,24.1,1.4,63.8,1.4,46.7,0,53.9-.2,54.7-1.5.6-.9,1-30.9,1-76.2,0-65.2-.2-75-1.5-76.3-1.3-1.3-7.4-1.5-42.5-1.5ZM77.9,749.49c-34.3,0-63.3-.2-66.8-1v-150c0-119.3.3-150,1.3-150,.6,0,5.3,1.7,10.2,3.6,5,2,13.3,5.9,18.5,8.6,5.2,2.8,12.9,7.3,17,10.1,4.1,2.7,11.3,8.3,16,12.2,4.7,4,11.7,10.6,15.5,14.6,3.9,4.1,8.7,9.4,10.7,11.9,1.9,2.5,6.4,8.8,9.9,14,3.4,5.2,8.9,14.9,12,21.5,3.2,6.6,7,15.6,8.4,20,1.5,4.4,3.6,11.8,4.7,16.5,1.1,4.7,2.6,12.1,3.4,16.5,1.1,6.4,1.4,22.6,1.4,151.5h-62.2ZM288.6,294.69l-.2,70.6c-.2,67.2-.3,70.7-2,71.4-1,.4-31.9.7-135.8.9l-11.5-12.3c-6.4-6.8-21.5-22.9-33.5-35.8-12.1-12.9-32.5-34.7-45.5-48.4-12.9-13.7-26.6-28.3-30.3-32.5-3.8-4.2-8.2-9-9.8-10.6-1.7-1.6-3-3.3-3-3.7s59.8-.8,132.8-.8,134.2.2,138.8,1.2ZM417.7,388.49c-13.3-14.1-30.2-32.1-37.6-40-7.4-8-19.1-20.4-26-27.5-6.9-7.2-16.4-17.4-29.8-32l-.4-35c-.4-32.1-.6-35.7-2.6-43-1.2-4.4-4.4-12.5-7.2-18-2.9-5.8-7.6-13.2-11.3-17.5-3.5-4.1-9.6-10.1-13.7-13.3-4.1-3.1-11.1-7.5-15.5-9.6-4.4-2.2-12-5.2-17-6.7-8.2-2.5-10.4-2.8-24-2.7-13.1.1-16.1.4-24,2.7-4.9,1.4-13,4.6-18,7.1-4.9,2.4-12.6,7.3-17,10.8-4.8,3.8-10.6,9.8-14.4,14.8-3.5,4.6-8.1,12-10.2,16.4-2.1,4.4-4.8,11.4-6,15.5-2.1,7-2.3,9.7-2.9,72H11.1l.3-40.2c.4-38.7.5-40.8,3-54,1.5-7.6,4.3-18.9,6.3-25,2-6.2,6-16.5,8.8-22.8,2.9-6.3,7.7-15.8,10.8-21,3-5.2,8.9-14,13-19.5,4.1-5.5,11-13.8,15.4-18.4,4.3-4.7,12.6-12.5,18.4-17.5,5.8-4.9,15.4-12.2,21.5-16.2,6.1-4,16.6-10.1,23.5-13.6,6.9-3.6,16.6-7.9,21.5-9.7,4.9-1.8,15.1-4.8,22.5-6.6,7.4-1.9,18.8-4.1,25.2-4.9,6.5-.8,14.4-1.6,17.5-1.9,3.2-.2,12.6-.2,20.8,0,8.3.3,20.9,1.3,28,2.4,7.1,1,18,3.3,24,5,6.1,1.7,15,4.4,20,6.2,5,1.7,16.2,6.7,25,11.2,9.9,5,20.8,11.5,28.5,17,7.5,5.4,17.3,13.8,24.6,21,6.6,6.6,15.5,16.3,19.6,21.5,4.1,5.2,9.1,12,11,15,2,3,5.7,9.3,8.3,14,2.6,4.7,6.6,13,8.9,18.5,2.4,5.5,5.2,12.7,6.4,16,1.1,3.3,2.7,8.5,3.6,11.5.8,3,2.4,10.3,3.5,16.3,1.2,5.9,2.5,16.9,3.1,24.5.5,7.5,1,28.3,1,46.2s.4,33.1,1,34c.8,1.3,10.3,1.6,143.5,2.5l.5,143.5h-136.5l-10.9-11.7c-6-6.5-21.8-23.3-35-37.3ZM600.1,748.49l-31.7.3c-17.5.1-39.7.2-49.3.1-11-.1-21.8-.7-29-1.8-6.3-1-16.5-3-22.5-4.6-6-1.6-14.8-4.3-19.5-6-4.7-1.7-13-5.3-18.5-7.9-5.5-2.7-14.7-8-20.5-11.9-5.8-3.8-14.5-10.5-19.5-14.9-5-4.3-12.7-12.2-17.3-17.4-4.6-5.2-11.5-14.1-15.4-19.9-3.8-5.8-9.6-15.9-12.8-22.5-3.2-6.6-7.6-17.2-9.8-23.5s-4.9-16-6-21.5c-1.2-5.5-2.6-13.5-3.2-17.7-.6-4.8-1-32-1-69.3v-61.5l130.5.5.2,49c.2,39.7.6,50.5,1.8,57,1,5.1,3.4,11.8,6.7,18.5,4.4,9.3,6.1,11.6,14.2,19.6,7.7,7.7,10.6,9.8,18.6,13.7,5.2,2.5,12.2,5.4,15.5,6.4,5.2,1.5,11.7,1.7,88.5,2.3v133Z"/>
        <path class="cls-4" d="M38.69,760.23h-.45c.15-.19.28-.3.36-.3.03,0,.06.11.09.3Z"/>
        <path class="cls-4" d="M140.1,749.49h-62.2c-34.3,0-63.3-.2-66.8-1v-150c0-119.3.3-150,1.3-150,.6,0,5.3,1.7,10.2,3.6,5,2,13.3,5.9,18.5,8.6,5.2,2.8,12.9,7.3,17,10.1,4.1,2.7,11.3,8.3,16,12.2,4.7,4,11.7,10.6,15.5,14.6,3.9,4.1,8.7,9.4,10.7,11.9,1.9,2.5,6.4,8.8,9.9,14,3.4,5.2,8.9,14.9,12,21.5,3.2,6.6,7,15.6,8.4,20,1.5,4.4,3.6,11.8,4.7,16.5,1.1,4.7,2.6,12.1,3.4,16.5,1.1,6.4,1.4,22.6,1.4,151.5Z"/>
        <path class="cls-4" d="M288.6,294.69l-.2,70.6c-.2,67.2-.3,70.7-2,71.4-1,.4-31.9.7-135.8.9l-11.5-12.3c-6.4-6.8-21.5-22.9-33.5-35.8-12.1-12.9-32.5-34.7-45.5-48.4-12.9-13.7-26.6-28.3-30.3-32.5-3.8-4.2-8.2-9-9.8-10.6-1.7-1.6-3-3.3-3-3.7s59.8-.8,132.8-.8,134.2.2,138.8,1.2Z"/>
        <path class="cls-4" d="M600.1,437.49h-136.5l-10.9-11.7c-6-6.5-21.8-23.3-35-37.3-13.3-14.1-30.2-32.1-37.6-40-7.4-8-19.1-20.4-26-27.5-6.9-7.2-16.4-17.4-29.8-32l-.4-35c-.4-32.1-.6-35.7-2.6-43-1.2-4.4-4.4-12.5-7.2-18-2.9-5.8-7.6-13.2-11.3-17.5-3.5-4.1-9.6-10.1-13.7-13.3-4.1-3.1-11.1-7.5-15.5-9.6-4.4-2.2-12-5.2-17-6.7-8.2-2.5-10.4-2.8-24-2.7-13.1.1-16.1.4-24,2.7-4.9,1.4-13,4.6-18,7.1-4.9,2.4-12.6,7.3-17,10.8-4.8,3.8-10.6,9.8-14.4,14.8-3.5,4.6-8.1,12-10.2,16.4-2.1,4.4-4.8,11.4-6,15.5-2.1,7-2.3,9.7-2.9,72H11.1l.3-40.2c.4-38.7.5-40.8,3-54,1.5-7.6,4.3-18.9,6.3-25,2-6.2,6-16.5,8.8-22.8,2.9-6.3,7.7-15.8,10.8-21,3-5.2,8.9-14,13-19.5,4.1-5.5,11-13.8,15.4-18.4,4.3-4.7,12.6-12.5,18.4-17.5,5.8-4.9,15.4-12.2,21.5-16.2,6.1-4,16.6-10.1,23.5-13.6,6.9-3.6,16.6-7.9,21.5-9.7,4.9-1.8,15.1-4.8,22.5-6.6,7.4-1.9,18.8-4.1,25.2-4.9,6.5-.8,14.4-1.6,17.5-1.9,3.2-.2,12.6-.2,20.8,0,8.3.3,20.9,1.3,28,2.4,7.1,1,18,3.3,24,5,6.1,1.7,15,4.4,20,6.2,5,1.7,16.2,6.7,25,11.2,9.9,5,20.8,11.5,28.5,17,7.5,5.4,17.3,13.8,24.6,21,6.6,6.6,15.5,16.3,19.6,21.5,4.1,5.2,9.1,12,11,15,2,3,5.7,9.3,8.3,14,2.6,4.7,6.6,13,8.9,18.5,2.4,5.5,5.2,12.7,6.4,16,1.1,3.3,2.7,8.5,3.6,11.5.8,3,2.4,10.3,3.5,16.3,1.2,5.9,2.5,16.9,3.1,24.5.5,7.5,1,28.3,1,46.2s.4,33.1,1,34c.8,1.3,10.3,1.6,143.5,2.5l.5,143.5Z"/>
        <path class="cls-4" d="M600.1,615.49v133l-31.7.3c-17.5.1-39.7.2-49.3.1-11-.1-21.8-.7-29-1.8-6.3-1-16.5-3-22.5-4.6-6-1.6-14.8-4.3-19.5-6-4.7-1.7-13-5.3-18.5-7.9-5.5-2.7-14.7-8-20.5-11.9-5.8-3.8-14.5-10.5-19.5-14.9-5-4.3-12.7-12.2-17.3-17.4-4.6-5.2-11.5-14.1-15.4-19.9-3.8-5.8-9.6-15.9-12.8-22.5-3.2-6.6-7.6-17.2-9.8-23.5s-4.9-16-6-21.5c-1.2-5.5-2.6-13.5-3.2-17.7-.6-4.8-1-32-1-69.3v-61.5l130.5.5.2,49c.2,39.7.6,50.5,1.8,57,1,5.1,3.4,11.8,6.7,18.5,4.4,9.3,6.1,11.6,14.2,19.6,7.7,7.7,10.6,9.8,18.6,13.7,5.2,2.5,12.2,5.4,15.5,6.4,5.2,1.5,11.7,1.7,88.5,2.3Z"/>
        <path class="cls-5" d="M600.1,437.49h-136.5l-10.9-11.7c-6-6.5-21.8-23.3-35-37.3-13.3-14.1-30.2-32.1-37.6-40-7.4-8-19.1-20.4-26-27.5-6.9-7.2-16.4-17.4-29.8-32l-.4-35c-.4-32.1-.6-35.7-2.6-43-1.2-4.4-4.4-12.5-7.2-18-2.9-5.8-7.6-13.2-11.3-17.5-3.5-4.1-9.6-10.1-13.7-13.3-4.1-3.1-11.1-7.5-15.5-9.6-4.4-2.2-12-5.2-17-6.7-8.2-2.5-10.4-2.8-24-2.7-13.1.1-16.1.4-24,2.7-4.9,1.4-13,4.6-18,7.1-4.9,2.4-12.6,7.3-17,10.8-4.8,3.8-10.6,9.8-14.4,14.8-3.5,4.6-8.1,12-10.2,16.4-2.1,4.4-4.8,11.4-6,15.5-2.1,7-2.3,9.7-2.9,72H11.1l.3-40.2c.4-38.7.5-40.8,3-54,1.5-7.6,4.3-18.9,6.3-25,2-6.2,6-16.5,8.8-22.8,2.9-6.3,7.7-15.8,10.8-21,3-5.2,8.9-14,13-19.5,4.1-5.5,11-13.8,15.4-18.4,4.3-4.7,12.6-12.5,18.4-17.5,5.8-4.9,15.4-12.2,21.5-16.2,6.1-4,16.6-10.1,23.5-13.6,6.9-3.6,16.6-7.9,21.5-9.7,4.9-1.8,15.1-4.8,22.5-6.6,7.4-1.9,18.8-4.1,25.2-4.9,6.5-.8,14.4-1.6,17.5-1.9,3.2-.2,12.6-.2,20.8,0,8.3.3,20.9,1.3,28,2.4,7.1,1,18,3.3,24,5,6.1,1.7,15,4.4,20,6.2,5,1.7,16.2,6.7,25,11.2,9.9,5,20.8,11.5,28.5,17,7.5,5.4,17.3,13.8,24.6,21,6.6,6.6,15.5,16.3,19.6,21.5,4.1,5.2,9.1,12,11,15,2,3,5.7,9.3,8.3,14,2.6,4.7,6.6,13,8.9,18.5,2.4,5.5,5.2,12.7,6.4,16,1.1,3.3,2.7,8.5,3.6,11.5.8,3,2.4,10.3,3.5,16.3,1.2,5.9,2.5,16.9,3.1,24.5.5,7.5,1,28.3,1,46.2s.4,33.1,1,34c.8,1.3,10.3,1.6,143.5,2.5l.5,143.5Z"/>
        <path class="cls-1" d="M288.6,294.69l-.2,70.6c-.2,67.2-.3,70.7-2,71.4-1,.4-31.9.7-135.8.9l-11.5-12.3c-6.4-6.8-21.5-22.9-33.5-35.8-12.1-12.9-32.5-34.7-45.5-48.4-12.9-13.7-26.6-28.3-30.3-32.5-3.8-4.2-8.2-9-9.8-10.6-1.7-1.6-3-3.3-3-3.7s59.8-.8,132.8-.8,134.2.2,138.8,1.2Z"/>
        <path class="cls-3" d="M140.1,749.49h-62.2c-34.3,0-63.3-.2-66.8-1v-150c0-119.3.3-150,1.3-150,.6,0,5.3,1.7,10.2,3.6,5,2,13.3,5.9,18.5,8.6,5.2,2.8,12.9,7.3,17,10.1,4.1,2.7,11.3,8.3,16,12.2,4.7,4,11.7,10.6,15.5,14.6,3.9,4.1,8.7,9.4,10.7,11.9,1.9,2.5,6.4,8.8,9.9,14,3.4,5.2,8.9,14.9,12,21.5,3.2,6.6,7,15.6,8.4,20,1.5,4.4,3.6,11.8,4.7,16.5,1.1,4.7,2.6,12.1,3.4,16.5,1.1,6.4,1.4,22.6,1.4,151.5Z"/>
        <path class="cls-2" d="M600.1,615.49v133l-31.7.3c-17.5.1-39.7.2-49.3.1-11-.1-21.8-.7-29-1.8-6.3-1-16.5-3-22.5-4.6-6-1.6-14.8-4.3-19.5-6-4.7-1.7-13-5.3-18.5-7.9-5.5-2.7-14.7-8-20.5-11.9-5.8-3.8-14.5-10.5-19.5-14.9-5-4.3-12.7-12.2-17.3-17.4-4.6-5.2-11.5-14.1-15.4-19.9-3.8-5.8-9.6-15.9-12.8-22.5-3.2-6.6-7.6-17.2-9.8-23.5s-4.9-16-6-21.5c-1.2-5.5-2.6-13.5-3.2-17.7-.6-4.8-1-32-1-69.3v-61.5l130.5.5.2,49c.2,39.7.6,50.5,1.8,57,1,5.1,3.4,11.8,6.7,18.5,4.4,9.3,6.1,11.6,14.2,19.6,7.7,7.7,10.6,9.8,18.6,13.7,5.2,2.5,12.2,5.4,15.5,6.4,5.2,1.5,11.7,1.7,88.5,2.3Z"/>
      </g>
      <g>
        <path class="cls-4" d="M724.68,343.9v-41.13h191.72v41.13h-71.15v126.41h-49.42v-126.41h-71.15Z"/>
        <path class="cls-4" d="M935.1,293.2h47.08v125.6c0,14.72.82,16.12,14.72,16.12v35.4h-17.76c-35.75,0-44.05-16.24-44.05-48.49v-128.63Z"/>
        <path class="cls-4" d="M1092.59,344.6c50.47,0,79.1,24.3,79.1,75.71,0,2.1,0,4.09-.12,6.08h-113.56c2.34,11.22,27.34,13.2,39.14,13.2,13.32,0,33.06-1.52,45.57-7.01l19.74,26.75c-16.47,13.2-50.94,14.49-71.03,14.49-41.94,0-80.5-17.64-80.5-64.61s40.54-64.61,81.67-64.61ZM1058,396.71h69.17c-2.34-13.55-19.51-17.88-34.58-17.88s-32.25,4.32-34.58,17.88Z"/>
        <path class="cls-4" d="M1190.37,348.11h47.08v15.07c6.78-13.2,21.15-18.58,35.28-18.58,18.11,0,33.53,5.96,43.46,21.5,11.33-15.42,26.4-21.5,45.45-21.5,40.54,0,53.63,29.79,53.63,65.89v59.82h-47.08v-63.32c0-15.07-3.15-26.99-20.8-26.99s-21.03,12.03-21.03,26.99v63.32h-47.08v-63.32c0-15.19-3.27-26.99-20.91-26.99s-20.91,11.8-20.91,26.99v63.32h-47.08v-122.21Z"/>
        <path class="cls-4" d="M1433.97,409.21c0-48.84,47.67-64.61,88.79-64.61,20.45,0,48.6,4.44,63.91,19.39l-22.2,26.64c-11.92-7.01-28.16-10.63-41.71-10.63-19.98,0-41.71,5.14-41.71,29.21s21.73,29.21,41.71,29.21c13.55,0,29.79-3.62,41.71-10.63l22.2,26.64c-15.31,14.95-43.46,19.39-63.91,19.39-41.13,0-88.79-15.77-88.79-64.61Z"/>
        <path class="cls-4" d="M1598.35,432.58c0-37.74,58.65-42.18,85.41-42.18,7.59,0,15.07.23,22.67.82.7-14.37-20.21-13.55-30.96-13.55-17.17,0-35.4,2.92-51.64,8.53l-15.54-29.21c19.63-10.75,49.77-12.38,71.62-12.38,39.37,0,73.61,4.44,73.61,52.93v72.79h-47.08v-14.14c-9.23,16.01-32.71,16.94-48.95,16.94-27.34,0-59.12-7.24-59.12-40.54ZM1672.89,440.06c9.46,0,33.53-2.57,33.53-16.47v-6.43c-5.02-.23-9.93-.35-14.95-.35-8.53,0-46.03,0-46.03,13.32,0,10.87,20.56,9.93,27.46,9.93Z"/>
        <path class="cls-4" d="M1823.95,348.11v13.67c9.23-14.02,28.04-17.17,43.58-17.17,45.8,0,65.31,25.94,65.31,69.75v55.96h-47.08v-55.96c0-21.03-8.41-34.35-30.96-34.35s-30.84,12.85-30.84,34.35v55.96h-47.08v-122.21h47.08Z"/>
        <path class="cls-4" d="M1956.21,348.11h47.08v122.21h-47.08v-122.21ZM1956.79,313.29c0-12.62,10.28-22.9,22.9-22.9s22.9,10.28,22.9,22.9-10.28,22.9-22.9,22.9-22.9-10.28-22.9-22.9Z"/>
        <path class="cls-4" d="M905.77,589.9v41.13h-124.66v27.92h119.05v40.07h-119.05v58.42h-49.42v-167.54h174.08Z"/>
        <path class="cls-4" d="M924.46,719.71c0-37.74,58.65-42.18,85.41-42.18,7.59,0,15.07.23,22.67.82.7-14.37-20.21-13.55-30.96-13.55-17.17,0-35.4,2.92-51.64,8.53l-15.54-29.21c19.63-10.75,49.77-12.38,71.62-12.38,39.37,0,73.61,4.44,73.61,52.93v72.79h-47.08v-14.14c-9.23,16.01-32.71,16.94-48.95,16.94-27.34,0-59.12-7.24-59.12-40.54ZM999,727.18c9.46,0,33.53-2.57,33.53-16.47v-6.43c-5.02-.23-9.93-.35-14.95-.35-8.53,0-46.03,0-46.03,13.32,0,10.87,20.56,9.93,27.46,9.93Z"/>
        <path class="cls-4" d="M1150.07,635.24v13.67c9.23-14.02,28.04-17.17,43.58-17.17,11.45,0,30.26,1.99,39.61,9.7l-20.91,32.71c-9.58-5.26-20.68-7.01-31.43-7.01-23.25,0-30.84,12.85-30.84,34.35v55.96h-47.08v-122.21h47.08Z"/>
        <path class="cls-4" d="M1237.81,719.71c0-37.74,58.65-42.18,85.41-42.18,7.59,0,15.07.23,22.67.82.7-14.37-20.21-13.55-30.96-13.55-17.17,0-35.4,2.92-51.64,8.53l-15.54-29.21c19.63-10.75,49.77-12.38,71.62-12.38,39.37,0,73.61,4.44,73.61,52.93v72.79h-47.08v-14.14c-9.23,16.01-32.71,16.94-48.95,16.94-27.34,0-59.12-7.24-59.12-40.54ZM1312.35,727.18c9.46,0,33.53-2.57,33.53-16.47v-6.43c-5.02-.23-9.93-.35-14.95-.35-8.53,0-46.03,0-46.03,13.32,0,10.87,20.56,9.93,27.46,9.93Z"/>
        <path class="cls-4" d="M1416.33,757.44v-177.12h47.08v68.58c9.23-14.02,28.04-17.17,43.58-17.17,45.8,0,65.31,25.94,65.31,69.75v55.96h-47.08v-55.96c0-21.03-8.41-34.35-30.96-34.35s-30.84,12.85-30.84,34.35v55.96h-47.08Z"/>
      </g>
    </g>
  </g>
</svg>